<svg width="687" height="687" viewBox="0 0 687 687" fill="none" xmlns="http://www.w3.org/2000/svg">
<path d="M149.291 14.584L255.186 159.605C261.335 168.029 250.794 178.501 242.411 172.295L21.4072 8.66796C12.9965 2.44129 2.4418 12.9959 8.66847 21.4066L172.294 242.412C178.502 250.795 168.03 261.336 159.606 255.185L14.5831 149.292C5.76577 142.853 -4.8502 154.556 2.41513 162.707L170.059 350.804C177.056 358.655 167.383 370.151 158.454 364.596L53.3858 299.272C44.1938 293.556 34.4818 305.792 42.1378 313.445L280.402 551.711C260.919 477.859 280.118 395.919 338.018 338.017C395.919 280.116 477.859 260.919 551.711 280.404L313.447 42.1387C305.791 34.484 293.558 44.1932 299.272 53.3865L364.596 158.453C370.15 167.384 358.655 177.057 350.803 170.061L162.706 2.41454C160.807 0.722543 158.714 -7.80559e-06 156.703 -7.80559e-06C150.086 -0.00134114 144.352 7.82131 149.291 14.584Z" fill="url(#paint0_linear_1_48)"/>
<path d="M359.251 359.252C284.331 434.171 284.331 555.638 359.251 630.56C434.17 705.478 555.639 705.478 630.558 630.56C705.479 555.638 705.479 434.171 630.558 359.252C593.099 321.792 544.002 303.061 494.904 303.061C445.807 303.061 396.711 321.792 359.251 359.252ZM409.974 579.837C363.067 532.93 363.067 456.879 409.974 409.973C456.88 363.068 532.93 363.068 579.835 409.973C626.742 456.879 626.742 532.93 579.835 579.837C556.383 603.289 525.644 615.016 494.904 615.016C464.166 615.016 433.427 603.289 409.974 579.837Z" fill="url(#paint1_linear_1_48)"/>
<path d="M547.987 416.213C540.418 411.099 532.055 407.04 523.122 404.261C514.19 401.481 504.686 399.989 494.904 399.991C481.86 399.988 469.32 402.647 457.954 407.459C440.892 414.68 426.444 426.685 416.214 441.823C411.099 449.392 407.039 457.755 404.26 466.688C401.482 475.619 399.988 485.123 399.991 494.905C399.987 507.949 402.646 520.489 407.459 531.856C414.68 548.919 426.684 563.367 441.822 573.597C449.392 578.712 457.755 582.769 466.687 585.548C475.62 588.327 485.123 589.821 494.904 589.82V546.261C487.754 546.257 481.054 544.824 474.922 542.233C465.734 538.352 457.848 531.812 452.306 523.603C449.535 519.5 447.348 514.991 445.854 510.184C444.359 505.376 443.551 500.269 443.548 494.905C443.552 487.755 444.986 481.053 447.575 474.921C451.458 465.733 457.999 457.848 466.206 452.307C470.308 449.536 474.818 447.349 479.626 445.853C484.435 444.36 489.539 443.549 494.904 443.549C502.056 443.552 508.755 444.987 514.888 447.576C524.075 451.457 531.96 457.997 537.503 466.207C540.275 470.309 542.459 474.819 543.956 479.625C545.451 484.435 546.259 489.54 546.26 494.905H589.819C589.822 481.86 587.163 469.321 582.351 457.953C575.13 440.892 563.126 426.443 547.987 416.213Z" id="circle"/>
<defs>
<linearGradient id="paint0_linear_1_48" x1="20.4662" y1="-38.6205" x2="727.189" y2="819.252" gradientUnits="userSpaceOnUse">
<stop stop-color="#00F2FE"/>
<stop offset="1" stop-color="#4FACFE"/>
</linearGradient>
<linearGradient id="paint1_linear_1_48" x1="41.2656" y1="-55.7556" x2="747.989" y2="802.117" gradientUnits="userSpaceOnUse">
<stop stop-color="#00F2FE"/>
<stop offset="1" stop-color="#4FACFE"/>
</linearGradient>
</defs>
<style>
#circle {
    fill: #000000
}
@media (prefers-color-scheme: dark) {
    #circle {
        fill: #FFFFFF
    }
}
</style>

</svg>
